# Blender v3.4.1 OBJ File: ''
# www.blender.org
mtllib untitled.mtl
o Cube
v -1.000000 1.000000 1.000000
v -0.543457 0.543457 -4.005962
v 1.000000 1.000000 1.000000
v 0.543457 0.543457 -4.005962
v -1.000000 -1.000000 1.000000
v -0.543457 -0.543457 -4.005962
v 1.000000 -1.000000 1.000000
v 0.543457 -0.543457 -4.005962
v -0.801485 0.000000 -4.005962
v 1.474791 0.000000 1.000000
v 0.801485 0.000000 -4.005962
v -1.474791 0.000000 1.000000
v 0.000000 -0.622306 -4.005962
v 0.000000 -1.145088 1.000000
v 0.000000 1.145088 1.000000
v 0.000000 0.622306 -4.005962
v 0.013822 0.011417 2.146880
v 0.012371 0.032951 -4.520944
vt 0.375000 0.875000
vt 0.625000 0.875000
vt 0.625000 1.000000
vt 0.375000 1.000000
vt 0.375000 0.125000
vt 0.625000 0.125000
vt 0.625000 0.250000
vt 0.375000 0.250000
vt 0.375000 0.500000
vt 0.625000 0.500000
vt 0.625000 0.625000
vt 0.375000 0.625000
vt 0.625000 0.750000
vt 0.375000 0.750000
vt 0.375000 0.375000
vt 0.625000 0.375000
vt 0.375000 0.000000
vt 0.625000 0.000000
vt 0.981852 0.577054
vt -0.046875 0.500000
vn 0.8729 -0.0019 -0.4879
vn 0.9419 -0.0004 0.3359
vn 0.5700 -0.7533 0.3280
vn 0.5225 -0.7053 -0.4790
vn -0.0004 -0.8833 -0.4688
vn -0.0003 -0.9460 0.3242
vn -0.5701 -0.7522 0.3304
vn -0.5223 -0.7033 -0.4821
vn -0.5283 0.7060 -0.4716
vn -0.5711 0.7525 0.3280
vn -0.0003 0.9475 0.3198
vn -0.0004 0.8944 -0.4472
vn 0.5710 0.7536 0.3256
vn 0.5286 0.7082 -0.4680
vn -0.8701 -0.0018 -0.4929
vn -0.9406 -0.0004 0.3395
vn 0.0047 0.0049 1.0000
vn 0.0073 0.0256 -0.9996
usemtl Arm
s 1
f 11/1/1 10/2/2 7/3/3 8/4/4
f 13/5/5 14/6/6 5/7/7 6/8/8
f 2/9/9 1/10/10 15/11/11 16/12/12
f 16/12/12 15/11/11 3/13/13 4/14/14
f 9/15/15 12/16/16 1/10/10 2/9/9
f 6/8/8 5/7/7 12/16/16 9/15/15
f 8/17/4 7/18/3 14/6/6 13/5/5
f 4/14/14 3/13/13 10/2/2 11/1/1
f 12/16/16 5/7/7 17/19/17
f 5/7/7 14/6/6 17/19/17
f 14/6/6 7/18/3 17/19/17
f 7/18/3 10/2/2 17/19/17
f 10/2/2 3/13/13 17/19/17
f 3/13/13 15/11/11 17/19/17
f 1/10/10 12/16/16 17/19/17
f 15/11/11 1/10/10 17/19/17
f 4/14/14 11/1/1 18/20/18
f 16/12/12 4/14/14 18/20/18
f 2/9/9 16/12/12 18/20/18
f 9/15/15 2/9/9 18/20/18
f 6/8/8 9/15/15 18/20/18
f 13/5/5 6/8/8 18/20/18
f 11/1/1 8/4/4 18/20/18
f 8/4/4 13/5/5 18/20/18
